Coordinates
version=1
nRows=21
nColumns=22
inDegrees=yes

Units are S.I. units (second, meters, Newtons, ...)
If the header above contains a line with 'inDegrees', this indicates whether rotational values are in degrees (yes) or radians (no).

endheader
time	pelvis_tilt	pelvis_list	pelvis_rotation	pelvis_tx	pelvis_ty	pelvis_tz	hip_flexion_r	hip_adduction_r	hip_rotation_r	knee_angle_r	ankle_angle_r	subtalar_angle_r	hip_flexion_l	hip_adduction_l	hip_rotation_l	knee_angle_l	ankle_angle_l	subtalar_angle_l	lumbar_extension	lumbar_bending	lumbar_rotation
      2.24000000	      4.59846903	     -5.47030074	     -9.04833578	     -0.03297517	      0.93735641	      0.03352792	     -1.46240810	      7.33636814	     -3.54377472	    -21.04885346	     15.71266638	     -5.56891704	     24.69275543	    -12.21408268	     -7.72255862	    -63.58267778	      4.84038667	     -1.26273539	    -15.46385928	     -0.27142983	      5.48411963
      2.25000000	      4.55072822	     -5.50249911	     -9.17006197	     -0.03978117	      0.93813851	      0.03307773	     -1.03927526	      7.41650458	     -3.46536942	    -20.86165401	     15.25574760	     -5.67303201	     23.64792111	    -12.17775594	     -7.57179225	    -64.76994265	      4.72731810	     -1.19962494	    -15.26211216	     -0.16736142	      5.09903552
      2.26000000	      4.49640980	     -5.55817021	     -9.26901705	     -0.04656065	      0.93876668	      0.03254755	     -0.58998327	      7.51907894	     -3.40666176	    -20.72117422	     14.81913263	     -5.77669486	     22.51503066	    -12.15809234	     -7.46000984	    -65.77043382	      4.59428113	     -1.08013862	    -15.05586742	     -0.03207688	      4.68195430
      2.27000000	      4.43173955	     -5.63937720	     -9.34507659	     -0.05330028	      0.93925186	      0.03193839	     -0.10955059	      7.64589535	     -3.37690265	    -20.63239256	     14.39105116	     -5.87212514	     21.29831482	    -12.15759331	     -7.38466854	    -66.57199680	      4.45023045	     -0.90796069	    -14.83696939	      0.13934325	      4.23069616
      2.28000000	      4.38302539	     -5.76230130	     -9.37710326	     -0.05998705	      0.93962368	      0.03123843	      0.34271122	      7.81623627	     -3.35647352	    -20.54290540	     14.01006716	     -5.97077133	     19.98884953	    -12.20044887	     -7.34550157	    -67.19638840	      4.30774591	     -0.55696432	    -14.63559379	      0.36088949	      3.72776577
      2.29000000	      4.29418971	     -5.88432900	     -9.39768421	     -0.06667553	      0.93980955	      0.03046721	      0.88627746	      7.98259570	     -3.37965876	    -20.54132152	     13.60359149	     -6.03151015	     18.65005997	    -12.24724097	     -7.36124687	    -67.63059597	      4.17246457	     -0.29772219	    -14.38537757	      0.58894822	      3.21363995
      2.30000000	      4.20318038	     -6.03509190	     -9.38973419	     -0.07335231	      0.93986533	      0.02962372	      1.44896174	      8.17836890	     -3.41561897	    -20.57913261	     13.22808975	     -6.08228772	     17.25029507	    -12.32838846	     -7.42008663	    -67.88565714	      4.05434382	     -0.03458563	    -14.13436153	      0.85117237	      2.67967805
      2.31000000	      4.09685009	     -6.19911365	     -9.35959519	     -0.07998334	      0.93978568	      0.02871439	      2.03359835	      8.38750912	     -3.47088433	    -20.63208362	     12.85688499	     -6.13303836	     15.80725171	    -12.43703181	     -7.54203114	    -67.96032163	      3.94178625	      0.18953424	    -13.85543503	      1.13283618	      2.12104138
      2.32000000	      3.95265938	     -6.36077566	     -9.31191083	     -0.08659675	      0.93953778	      0.02772674	      2.67775162	      8.59519940	     -3.54755664	    -20.71481710	     12.47656548	     -6.18882461	     14.36153315	    -12.55300742	     -7.72115209	    -67.86408037	      3.83625756	      0.30429494	    -13.52394195	      1.42015947	      1.54828774
      2.33000000	      3.83620539	     -6.54619511	     -9.23187596	     -0.09320656	      0.93922494	      0.02663961	      3.29458460	      8.82496860	     -3.59795378	    -20.80627238	     12.11429563	     -6.25841867	     12.84921028	    -12.68649299	     -7.93388252	    -67.60029741	      3.72390140	      0.43727440	    -13.22608354	      1.73171664	      0.94559134
      2.34000000	      3.69305841	     -6.71999136	     -9.13276155	     -0.09981397	      0.93877053	      0.02546142	      3.96501155	      9.03925908	     -3.66841038	    -20.93506511	     11.76949814	     -6.33482550	     11.34307629	    -12.80757036	     -8.18701307	    -67.17238243	      3.61204652	      0.52039728	    -12.88931065	      2.03523260	      0.33522954
      2.35000000	      3.53057477	     -6.88550175	     -9.00915773	     -0.10642455	      0.93819647	      0.02417534	      4.67014248	      9.23919077	     -3.76102367	    -21.07809094	     11.42194876	     -6.41405417	      9.84789336	    -12.91014614	     -8.46354801	    -66.59008644	      3.50871094	      0.57576074	    -12.52266062	      2.33302226	     -0.29159857
      2.36000000	      3.31171698	     -7.03516550	     -8.86521172	     -0.11310859	      0.93743410	      0.02276391	      5.48082461	      9.41697915	     -3.89076834	    -21.28244619	     11.10500869	     -6.47203049	      8.43281576	    -12.98828728	     -8.74601754	    -65.87994369	      3.42286872	      0.59943029	    -12.09359465	      2.62567803	     -0.92821013
      2.37000000	      3.15346650	     -7.18188839	     -8.66985275	     -0.11974347	      0.93675094	      0.02121171	      6.17992282	      9.57289086	     -4.03378684	    -21.39208181	     10.75134715	     -6.55376584	      6.94597075	    -13.02602948	     -9.01185166	    -64.98960119	      3.34951538	      0.69129243	    -11.72344240	      2.90386368	     -1.60328934
      2.38000000	      2.90540455	     -7.31036200	     -8.46878500	     -0.12655130	      0.93583998	      0.01955421	      7.03502840	      9.70808229	     -4.20623887	    -21.57765284	     10.42305578	     -6.60525413	      5.60911027	    -13.04082394	     -9.26305067	    -64.00390874	      3.31011119	      0.73275151	    -11.26709090	      3.17299012	     -2.27390759
      2.39000000	      2.67828652	     -7.41381728	     -8.20460487	     -0.13338593	      0.93495825	      0.01770287	      7.83749815	      9.79196021	     -4.44136140	    -21.68137683	     10.08051024	     -6.65739774	      4.28595687	    -12.98442834	     -9.43788794	    -62.86440881	      3.29174561	      0.83822028	    -10.82920656	      3.41163142	     -2.99019617
      2.40000000	      2.41993725	     -7.51773520	     -7.93758617	     -0.14044827	      0.93397709	      0.01576531	      8.71202265	      9.87189135	     -4.65775461	    -21.82425041	      9.72892323	     -6.70626724	      3.05602574	    -12.92219882	     -9.59034199	    -61.63107735	      3.30733344	      0.90493685	    -10.38654032	      3.64699455	     -3.70119599
      2.41000000	      2.16079045	     -7.58957122	     -7.59705556	     -0.14760134	      0.93299997	      0.01361276	      9.56126108	      9.88802776	     -4.96500415	    -21.88458801	      9.38727271	     -6.75455218	      1.89290355	    -12.78896010	     -9.62429514	    -60.26450194	      3.34257404	      1.01534209	     -9.94202432	      3.84622825	     -4.45798311
      2.42000000	      1.88442539	     -7.65960427	     -7.26208339	     -0.15503310	      0.93197864	      0.01140769	     10.45769196	      9.89966081	     -5.22290807	    -21.96275812	      8.96511638	     -6.81643343	      0.81125236	    -12.65381096	     -9.63320775	    -58.79788337	      3.43252964	      1.06571154	     -9.51690647	      4.03088881	     -5.19378404
      2.43000000	      1.60518689	     -7.70789791	     -6.83962738	     -0.16261361	      0.93096273	      0.00900089	     11.33582584	      9.85153565	     -5.60475332	    -21.96730905	      8.58038708	     -6.88902193	     -0.18191822	    -12.48039199	     -9.50263316	    -57.20861047	      3.52690850	      1.10773145	     -9.09522788	      4.18560744	     -5.99071154
      2.44000000	      1.31877572	     -7.75028537	     -6.40738410	     -0.17043983	      0.92995861	      0.00654133	     12.21823248	      9.78567316	     -5.97206070	    -21.93267394	      8.09901125	     -6.97093390	     -1.10988976	    -12.30826474	     -9.33010551	    -55.48838175	      3.67553058	      1.07855421	     -8.69526136	      4.31657195	     -6.75109512
